# xmcd
#
# Track frame offsets:
#	150
#	16155
#	35124
#	52550
#	71708
#	85133
#	99063
#	118179
#	136949
#	154069
#	170650
#	184073
#	205378
#	224526
#	243807
#	257563
#	276427
#	295867
#	313790
#
# Disc length: 4464 seconds
#
# Revision: 0
# Processed by: cddbd v1.5.2PL0 Copyright (c) Steve Scherf et al.
# Submitted via: EasyCDDAExtractor 8.1.2.3
#
DISCID=11116e13
DTITLE=Various Artist - Cradle 2 the grave
DYEAR=1900
DGENRE=BO
TTITLE0=50 Cent and G-Unit - Follow Me Gangster
TTITLE1=Baby - Won't Be Coming Back
TTITLE2=Bazaar Royale - What's It All For¿
TTITLE3=Big Stan - Hand That Rocks The Cradle
TTITLE4=Blood Records Kennel - Getting Down
TTITLE5=CNN and MOP - Stompdash--outu
TTITLE6=Clipse - I'm Serious
TTITLE7=Comp - Do Sumptin
TTITLE8=DMX - Right Wrong
TTITLE9=DMX - X Gon' Give It To Ya
TTITLE10=Drag-On - Fireman
TTITLE11=Eminem, DMX and Obie Trice - Go To Sleep
TTITLE12=Fat Joe ft Young Restless - C2G
TTITLE13=Foxy Brown ft Althea - My Life (Cradle 2 The Grave)
TTITLE14=Jinx and Loose -  It's Gon' Be What It's Gon' Be
TTITLE15=Jinx Da Juvy - Off The Hook
TTITLE16=Joe Budden - Drop Drop
TTITLE17=Kashmir - Focus
TTITLE18=Profit - Slangin' Dem Thangs
EXTD=
EXTT0=
EXTT1=
EXTT2=
EXTT3=
EXTT4=
EXTT5=
EXTT6=
EXTT7=
EXTT8=
EXTT9=
EXTT10=
EXTT11=
EXTT12=
EXTT13=
EXTT14=
EXTT15=
EXTT16=
EXTT17=
EXTT18=
PLAYORDER=
